<?xml version="1.0" encoding="utf-8"?>
<!-- Generator: Adobe Illustrator 24.1.1, SVG Export Plug-In . SVG Version: 6.00 Build 0)  -->
<svg version="1.1" id="Capa_1" xmlns="http://www.w3.org/2000/svg" xmlns:xlink="http://www.w3.org/1999/xlink" x="0px" y="0px"
	 viewBox="0 0 32 32" style="enable-background:new 0 0 32 32;" xml:space="preserve">
<g>
	<path d="M16.1,7c-0.3,1.3,0.5,4.8,1.4,6.9s3.1,6.9,7,10.3s5.9-8.1,3.4-12.1S19.9,6.3,18,6C18,6,16.4,5.7,16.1,7z"/>
	<path d="M9.5,26c0.6,0.3,3.4,1.7,7.4,1.5s6.5-3.1,6.5-3.1c-2.9-2.3-6.4-8.5-7.8-12.8c-1-3-1.3-5.1-1.2-6.6c0.1-0.6,0.2-1,0.4-1.4
		C15.7,2.1,19.7,6,19.7,6c-2.8-3.4-4-3.1-5.1-3C14,3,13,3.2,11.8,3.6c-0.3,0.1-1.4,0.7-1.6,0.9c-0.7,0.4-1.7,1-2.7,2.2
		c-2.3,2.7-3.2,5-3.4,8.4s0.7,5.4,2,7.6C7,24.1,8.7,25.6,9.5,26z"/>
</g>
</svg>
